<?xml version="1.0" encoding="UTF-8"?>
<svg version="1.1" xmlns="http://www.w3.org/2000/svg" width="512" height="512">
<path d="M0 0 C0.97088562 0.00215515 1.94177124 0.0043103 2.94207764 0.00653076 C17.28085186 0.05758363 31.28046967 0.45300087 45.375 3.3125 C46.39045898 3.51117676 47.40591797 3.70985352 48.45214844 3.91455078 C91.03966297 12.43332991 130.43806471 30.89323047 163.375 59.3125 C164.13167969 59.95832031 164.88835937 60.60414062 165.66796875 61.26953125 C178.81932767 72.79073847 191.05594178 85.1852663 201.375 99.3125 C202.23306152 100.46355017 203.09113451 101.61459177 203.94921875 102.765625 C209.98797189 110.95836494 215.32213163 119.4834002 220.375 128.3125 C221.03113281 129.43527344 221.68726563 130.55804688 222.36328125 131.71484375 C234.33869953 153.04980739 242.02378 176.65590432 247.125 200.5 C247.32391846 201.42498291 247.52283691 202.34996582 247.7277832 203.30297852 C250.95022043 219.1718575 251.75211893 234.78656861 251.6875 250.9375 C251.68534485 251.90838562 251.6831897 252.87927124 251.68096924 253.87957764 C251.62991637 268.21835186 251.23449913 282.21796967 248.375 296.3125 C248.07698486 297.83568848 248.07698486 297.83568848 247.77294922 299.38964844 C239.25417009 341.97716297 220.79426953 381.37556471 192.375 414.3125 C191.72917969 415.06917969 191.08335937 415.82585937 190.41796875 416.60546875 C178.89676153 429.75682767 166.5022337 441.99344178 152.375 452.3125 C151.22394983 453.17056152 150.07290823 454.02863451 148.921875 454.88671875 C140.72913506 460.92547189 132.2040998 466.25963163 123.375 471.3125 C122.25222656 471.96863281 121.12945312 472.62476563 119.97265625 473.30078125 C98.63769261 485.27619953 75.03159568 492.96128 51.1875 498.0625 C50.26251709 498.26141846 49.33753418 498.46033691 48.38452148 498.6652832 C32.5156425 501.88772043 16.90093139 502.68961893 0.75 502.625 C-0.22088562 502.62284485 -1.19177124 502.6206897 -2.19207764 502.61846924 C-16.53085186 502.56741637 -30.53046967 502.17199913 -44.625 499.3125 C-45.64045898 499.11382324 -46.65591797 498.91514648 -47.70214844 498.71044922 C-90.28966297 490.19167009 -129.68806471 471.73176953 -162.625 443.3125 C-163.76001953 442.34376953 -163.76001953 442.34376953 -164.91796875 441.35546875 C-178.06932767 429.83426153 -190.30594178 417.4397337 -200.625 403.3125 C-201.48306152 402.16144983 -202.34113451 401.01040823 -203.19921875 399.859375 C-209.23797189 391.66663506 -214.57213163 383.1415998 -219.625 374.3125 C-220.28113281 373.18972656 -220.93726563 372.06695312 -221.61328125 370.91015625 C-233.58869953 349.57519261 -241.27378 325.96909568 -246.375 302.125 C-246.57391846 301.20001709 -246.77283691 300.27503418 -246.9777832 299.32202148 C-250.20022043 283.4531425 -251.00211893 267.83843139 -250.9375 251.6875 C-250.93534485 250.71661438 -250.9331897 249.74572876 -250.93096924 248.74542236 C-250.87991637 234.40664814 -250.48449913 220.40703033 -247.625 206.3125 C-247.42632324 205.29704102 -247.22764648 204.28158203 -247.02294922 203.23535156 C-238.50417009 160.64783703 -220.04426953 121.24943529 -191.625 88.3125 C-190.65626953 87.17748047 -190.65626953 87.17748047 -189.66796875 86.01953125 C-178.14676153 72.86817233 -165.7522337 60.63155822 -151.625 50.3125 C-150.47394983 49.45443848 -149.32290823 48.59636549 -148.171875 47.73828125 C-139.97913506 41.69952811 -131.4540998 36.36536837 -122.625 31.3125 C-121.50222656 30.65636719 -120.37945312 30.00023438 -119.22265625 29.32421875 C-97.88769261 17.34880047 -74.28159568 9.66372 -50.4375 4.5625 C-49.51251709 4.36358154 -48.58753418 4.16466309 -47.63452148 3.9597168 C-31.7656425 0.73727957 -16.15093139 -0.06461893 0 0 Z M-138.3125 99.22265625 C-140.27485514 100.99606841 -142.27161409 102.69400245 -144.3125 104.375 C-148.17518002 107.67175248 -151.36472715 111.43185135 -154.625 115.3125 C-155.73488281 116.57320312 -155.73488281 116.57320312 -156.8671875 117.859375 C-193.22404572 159.90788195 -209.04922032 214.52116773 -205.4140625 269.50292969 C-202.22038196 306.53268773 -188.49432494 350.44317506 -161.625 377.3125 C-129.945 345.6325 -98.265 313.9525 -65.625 281.3125 C-68.98772743 277.94977257 -70.373739 276.70713986 -74.44140625 274.9453125 C-75.82706787 274.33441772 -75.82706787 274.33441772 -77.24072266 273.71118164 C-78.69937744 273.08070923 -78.69937744 273.08070923 -80.1875 272.4375 C-82.18727707 271.54538388 -84.18599057 270.65087952 -86.18359375 269.75390625 C-87.13347168 269.32867676 -88.08334961 268.90344727 -89.06201172 268.46533203 C-99.24794969 263.88369752 -106.7127327 258.0653835 -114.625 250.3125 C-115.28371094 249.69246094 -115.94242187 249.07242188 -116.62109375 248.43359375 C-121.28914862 243.95959197 -125.28782693 238.97401885 -129.3125 233.92382812 C-130.72841521 232.18553936 -132.18842739 230.4915094 -133.65625 228.796875 C-152.16939875 207.1159463 -155.83392309 178.98788387 -154.625 151.3125 C-153.37028113 137.11356781 -146.1394568 124.70304862 -135.625 115.3125 C-129.18898214 110.72253681 -122.33571799 107.13503334 -114.625 105.3125 C-113.73167969 105.09722656 -112.83835937 104.88195312 -111.91796875 104.66015625 C-88.03432048 99.96927283 -57.07790739 105.20652616 -36.42578125 118.2890625 C-19.48909309 130.525052 -10.13756714 146.25311838 -5.6875 166.5625 C-2.41922848 180.67166713 1.11596546 191.84783937 10.375 203.3125 C14.01313075 201.77709519 16.33174975 199.60248399 19.10797119 196.82003784 C19.56874676 196.36097113 20.02952232 195.90190441 20.50426078 195.42892659 C22.04441522 193.89206197 23.57732014 192.34816671 25.11035156 190.80419922 C26.21394617 189.70004038 27.31798153 188.59632192 28.42242432 187.49301147 C31.41832237 184.4976875 34.40801172 181.49623482 37.3966341 178.49365377 C40.52140584 175.35638393 43.65183802 172.22477272 46.78167725 169.09255981 C52.70711038 163.16090922 58.62742659 157.22417855 64.54592681 151.28561127 C71.28438776 144.52479965 78.02852509 137.76966265 84.77314806 131.01499915 C98.64676284 117.12047633 112.51322446 103.21883352 126.375 89.3125 C96.48764557 58.85463184 45.59812693 45.7214167 4.24707031 44.9609375 C-49.16051341 44.63766335 -98.84627576 63.14806065 -138.3125 99.22265625 Z M162.56588745 134.86764526 C161.77220764 135.65568542 160.97852783 136.44372559 160.16079712 137.25564575 C159.28901825 138.13147308 158.41723938 139.00730042 157.51904297 139.90966797 C156.60191528 140.82329102 155.6847876 141.73691406 154.73986816 142.67822266 C152.21882647 145.1901209 149.70418321 147.7083359 147.19087744 150.22797155 C144.5646552 152.85924369 141.93357234 155.48564802 139.30325317 158.11282349 C134.88622364 162.52621042 130.47343698 166.94380683 126.06298828 171.36376953 C120.95778527 176.47985765 115.84541692 181.58870063 110.72926605 186.69383895 C106.34341444 191.07062605 101.96145825 195.45128449 97.58275712 199.83522522 C94.96466782 202.45643884 92.3452312 205.07626758 89.72228622 207.69262314 C86.79984115 210.60823914 83.88560719 213.53192786 80.97216797 216.45654297 C80.09634064 217.32832184 79.22051331 218.20010071 78.31814575 219.09829712 C77.53010559 219.89197693 76.74206543 220.68565674 75.93014526 221.50338745 C75.23955458 222.19473219 74.54896389 222.88607693 73.83744621 223.59837151 C72.1586506 225.19054632 72.1586506 225.19054632 72.375 227.3125 C73.77685547 227.78816406 73.77685547 227.78816406 75.20703125 228.2734375 C104.6585297 238.59629036 133.79783112 258.14809913 148.27685547 286.72827148 C153.10666456 296.78799986 156.89533843 308.10041079 157.375 319.3125 C157.45234375 320.93865234 157.45234375 320.93865234 157.53125 322.59765625 C158.09894589 345.47106986 150.39754249 366.39074474 134.57421875 383.046875 C133.84847656 383.79453125 133.12273437 384.5421875 132.375 385.3125 C131.76269531 385.99828125 131.15039062 386.6840625 130.51953125 387.390625 C119.53140412 399.29247699 102.87544021 408.21695564 86.64624023 409.53393555 C73.97805035 410.03885448 62.3728805 409.71220527 50.375 405.3125 C49.35792969 404.961875 48.34085938 404.61125 47.29296875 404.25 C28.90550107 397.30951417 11.73873332 383.60217606 0.625 367.5 C-0.14142822 366.40292725 -0.14142822 366.40292725 -0.92333984 365.28369141 C-5.04756253 359.30897003 -8.86127305 353.16813386 -12.59594727 346.94458008 C-17.02906481 339.56791779 -21.78685606 332.42803491 -26.625 325.3125 C-32.13335668 329.90633615 -37.2455012 334.78478877 -42.31420898 339.85644531 C-43.15403824 340.69291595 -43.99386749 341.5293866 -44.85914612 342.39120483 C-47.14159663 344.66583186 -49.4217971 346.94268144 -51.70065951 349.22090244 C-53.12547915 350.64500821 -54.55100972 352.06839834 -55.97679329 353.491539 C-60.95246197 358.45798854 -65.92557397 363.42698142 -70.89624023 368.3984375 C-75.52983008 373.03263068 -80.16899792 377.66118814 -84.81075042 382.28720403 C-88.80167887 386.26508324 -92.78876935 390.24678145 -96.7728582 394.23151088 C-99.15029435 396.60920232 -101.5292674 398.98530522 -103.91210747 401.35758209 C-106.55999718 403.99574104 -109.20155528 406.64007947 -111.84155273 409.28613281 C-112.63471893 410.0736795 -113.42788513 410.8612262 -114.24508667 411.67263794 C-114.9585878 412.39033356 -115.67208893 413.10802917 -116.4072113 413.84747314 C-117.03231315 414.47203022 -117.65741499 415.0965873 -118.30145931 415.74007034 C-119.83965397 417.22496769 -119.83965397 417.22496769 -119.625 419.3125 C-95.72329968 439.50270237 -61.82252449 449.80652831 -31.625 455.3125 C-30.90489746 455.44527344 -30.18479492 455.57804687 -29.44287109 455.71484375 C21.06529887 464.52253834 75.75713723 450.12469246 117.4453125 421.12890625 C125.09725897 415.69257089 132.13774983 409.7319982 139.0625 403.40234375 C141.02485514 401.62893159 143.02161409 399.93099755 145.0625 398.25 C148.92518002 394.95324752 152.11472715 391.19314865 155.375 387.3125 C156.11492187 386.47203125 156.85484375 385.6315625 157.6171875 384.765625 C193.97404572 342.71711805 209.79922032 288.10383227 206.1640625 233.12207031 C203.26057468 199.45700884 191.54255148 166.95586477 173.375 138.5625 C172.90602295 137.82870117 172.4370459 137.09490234 171.95385742 136.33886719 C170.81985325 134.6229645 169.60495608 132.9609828 168.375 131.3125 C165.42564061 131.3125 164.63067398 132.8051108 162.56588745 134.86764526 Z " fill="#FE0000" transform="translate(257.625,6.6875)"/>
<path d="M0 0 C1.76783398 0.47284541 3.5350068 0.94816321 5.30189514 1.42453003 C6.77814157 1.82117261 6.77814157 1.82117261 8.28421116 2.22582817 C13.26002658 3.64425072 17.79512309 5.8723748 22.4375 8.125 C23.44449951 8.61145996 24.45149902 9.09791992 25.48901367 9.59912109 C33.06026817 13.34770339 39.61834361 17.42106768 46 23 C46.84046875 23.71671875 47.6809375 24.4334375 48.546875 25.171875 C51.08607747 27.39564859 53.55105538 29.67732909 56 32 C56.9075 32.85464844 57.815 33.70929688 58.75 34.58984375 C74.7990567 50.12622225 87.0189264 70.06740472 88 93 C88.0515625 94.08410156 88.103125 95.16820312 88.15625 96.28515625 C88.72266378 119.10691158 81.05815675 140.04283754 65.265625 156.66796875 C64.51796875 157.43753906 63.7703125 158.20710937 63 159 C62.31421875 159.75925781 61.6284375 160.51851562 60.921875 161.30078125 C48.75226567 174.34930681 31.37960941 183.61925783 13.3984375 184.3359375 C1.59657029 184.51201218 -8.82029166 184.09967592 -20 180 C-21.01707031 179.649375 -22.03414063 179.29875 -23.08203125 178.9375 C-35.79569399 174.13863386 -46.87657465 165.92481179 -57 157 C-57.67160156 156.42378906 -58.34320313 155.84757813 -59.03515625 155.25390625 C-70.05279021 145.09596447 -77.75232849 131.07290606 -85.37109375 118.32421875 C-87.0875129 115.46437188 -88.86341238 112.66363213 -90.72265625 109.89453125 C-91.36231323 108.9367981 -91.36231323 108.9367981 -92.01489258 107.9597168 C-92.81547057 106.77048105 -93.62596157 105.58783542 -94.44799805 104.41333008 C-97.04786085 100.53404702 -97.04786085 100.53404702 -96.82807255 98.0815773 C-95.75721973 95.38970818 -94.28839649 93.91960224 -92.23521423 91.87445068 C-91.42608078 91.06119324 -90.61694733 90.24793579 -89.78329468 89.41003418 C-88.88921906 88.52674438 -87.99514343 87.64345459 -87.07397461 86.73339844 C-86.12738199 85.78765212 -85.18144965 84.84124454 -84.23612976 83.89422607 C-81.66856538 81.32580046 -79.09185202 78.76673373 -76.51341319 76.20923138 C-73.82012097 73.5346845 -71.13531395 70.85164769 -68.44960022 68.16949463 C-63.36280557 63.09202673 -58.26841148 58.022255 -53.17125183 52.95519471 C-47.36857517 47.18604241 -41.57440803 41.40837599 -35.78094471 35.62997389 C-23.86341497 23.74380745 -11.93522914 11.86839441 0 0 Z " fill="#D39229" transform="translate(328,233)"/>
<path d="M0 0 C13.27959766 11.77869917 20.6590845 26.38231168 24.35913086 43.62182617 C27.58874783 57.69800339 31.12479372 68.81274619 40.35913086 80.24682617 C39.0421879 83.15350482 37.62095573 85.2407397 35.38090515 87.50593567 C34.77114838 88.12711273 34.1613916 88.74828979 33.53315735 89.38829041 C32.86559921 90.05808426 32.19804108 90.72787811 31.51025391 91.41796875 C30.80598267 92.1321698 30.10171143 92.84637085 29.37609863 93.58221436 C27.04661937 95.94088553 24.7094333 98.29171477 22.37084961 100.64135742 C20.74900187 102.27470789 19.12716053 103.9080647 17.50532532 105.54142761 C14.10541777 108.96233744 10.7008818 112.3785718 7.29394531 115.79248047 C2.92207493 120.17534722 -1.43092503 124.57646649 -5.7797823 128.98215199 C-9.12142523 132.36096458 -12.47633293 135.72636189 -15.83507347 139.08817101 C-17.44644303 140.70560848 -19.05279156 142.32806388 -20.65404701 143.95551491 C-22.89012476 146.22555753 -25.14420043 148.47606937 -27.40380859 150.72265625 C-28.06529404 151.40257126 -28.72677948 152.08248627 -29.40830994 152.78300476 C-33.95087402 157.24372617 -33.95087402 157.24372617 -37.36808777 157.25907898 C-40.72123879 155.76565045 -44.01227981 154.19376295 -47.26586914 152.49682617 C-51.94847023 150.09509638 -56.6187777 147.77024658 -61.45336914 145.68432617 C-77.51399282 138.34505007 -89.66520038 125.88868779 -100.42602539 112.07104492 C-102.11877227 109.91256875 -103.8424863 107.83733964 -105.63696289 105.76635742 C-124.17924189 84.08199461 -127.85067872 55.94250404 -126.64086914 28.24682617 C-125.34761658 13.61183046 -117.64149905 0.72669717 -106.64086914 -8.75317383 C-100.22300698 -13.37010528 -93.35085195 -16.93081426 -85.64086914 -18.75317383 C-84.74754883 -18.96844727 -83.85422852 -19.1837207 -82.93383789 -19.40551758 C-56.10013661 -24.67580807 -21.02338077 -17.79661285 0 0 Z " fill="#D39229" transform="translate(228.640869140625,129.753173828125)"/>
<path d="M0 0 C3.96171281 3.6887326 6.76051734 7.492017 9.625 12.0625 C23.76579957 33.78897266 44.69385587 49.66471357 70 56 C70.71542969 56.22300781 71.43085938 56.44601562 72.16796875 56.67578125 C89.63324734 61.64173087 107.84226398 56.62986699 123.51953125 48.73046875 C141.07464425 38.88939571 153.10567307 24.24543666 161.44140625 6.203125 C163 3 163 3 165 1 C169.4687345 24.66035321 166.26271693 46.51757923 153.16796875 66.93359375 C149.81634607 71.67417718 146.03937764 75.84222681 142 80 C141.31421875 80.75925781 140.6284375 81.51851563 139.921875 82.30078125 C127.75226567 95.34930681 110.37960941 104.61925783 92.3984375 105.3359375 C80.59657029 105.51201218 70.17970834 105.09967592 59 101 C57.98292969 100.649375 56.96585937 100.29875 55.91796875 99.9375 C43.20430601 95.13863386 32.12342535 86.92481179 22 78 C21.32839844 77.42378906 20.65679687 76.84757812 19.96484375 76.25390625 C8.94720979 66.09596447 1.24767151 52.07290606 -6.37109375 39.32421875 C-8.0875129 36.46437188 -9.86341238 33.66363213 -11.72265625 30.89453125 C-12.36231323 29.9367981 -12.36231323 29.9367981 -13.01489258 28.9597168 C-13.81547057 27.77048105 -14.62596157 26.58783542 -15.44799805 25.41333008 C-18.04704499 21.53526438 -18.04704499 21.53526438 -17.83129883 19.08056641 C-16.75374332 16.38367125 -15.25826319 14.91919067 -13.18359375 12.890625 C-12.41982422 12.13652344 -11.65605469 11.38242187 -10.86914062 10.60546875 C-10.06669922 9.82816406 -9.26425781 9.05085938 -8.4375 8.25 C-7.63119141 7.45722656 -6.82488281 6.66445313 -5.99414062 5.84765625 C-4.00266222 3.89152954 -2.00452279 1.94274281 0 0 Z " fill="#996A1F" transform="translate(249,312)"/>
<path d="M0 0 C0.66 0 1.32 0 2 0 C2.16081055 0.58378418 2.32162109 1.16756836 2.48730469 1.76904297 C3.23567808 4.47268863 3.99279456 7.1738152 4.75 9.875 C5.00265625 10.7928125 5.2553125 11.710625 5.515625 12.65625 C8.02861326 21.57735831 10.41757131 29.90023704 16.6875 36.9375 C17.57623225 37.95380541 18.46423769 38.97074679 19.3515625 39.98828125 C20.01720215 40.73972412 20.01720215 40.73972412 20.69628906 41.50634766 C22.71956736 43.82440321 24.63485509 46.22728028 26.5625 48.625 C30.87948451 53.90552939 35.35448837 59.00647966 40 64 C40.71929687 64.78503906 41.43859375 65.57007813 42.1796875 66.37890625 C50.97392079 75.6269345 61.35420709 80.83583493 72.9375 85.875 C82.21730133 90.04080259 90.45446046 94.06590935 98 101 C98.74765625 101.67675781 99.4953125 102.35351562 100.265625 103.05078125 C104.73032456 107.30878175 108.43252751 111.98043689 112 117 C107.34954428 122.54222298 102.48862692 127.82094061 97.4375 133 C96.69564453 133.78761719 95.95378906 134.57523438 95.18945312 135.38671875 C94.46564453 136.12535156 93.74183594 136.86398437 92.99609375 137.625 C92.34825928 138.29789063 91.7004248 138.97078125 91.03295898 139.6640625 C89 141 89 141 86.4753418 140.81542969 C82.92787855 139.64682063 79.67684446 137.97210465 76.375 136.25 C71.69239891 133.84827021 67.02209144 131.5234204 62.1875 129.4375 C46.12687633 122.0982239 33.97566877 109.64186162 23.21484375 95.82421875 C21.52209687 93.66574258 19.79838284 91.59051347 18.00390625 89.51953125 C2.80168339 71.74121414 -3.1449838 48.5048186 -3.25 25.375 C-3.270625 24.26253906 -3.29125 23.15007812 -3.3125 22.00390625 C-3.3485887 14.25385765 -2.22911894 7.41862886 0 0 Z " fill="#996A1F" transform="translate(105,146)"/>
</svg>
